{
  "accessors": [
    {
      "bufferView": 2,
      "componentType": 5126,
      "count": 59245,
      "max": [
        8.218866348266602,
        4.078240871429443,
        5.786983489990234
      ],
      "min": [
        -6.610714912414551,
        -3.7278990745544434,
        -7.581325531005859
      ],
      "type": "VEC3"
    },
    {
      "bufferView": 2,
      "byteOffset": 710940,
      "componentType": 5126,
      "count": 59245,
      "max": [
        0.9999995231628418,
        0.9999974966049194,
        0.9999978542327881
      ],
      "min": [
        -0.9999939799308777,
        -0.9999073147773743,
        -0.999997615814209
      ],
      "type": "VEC3"
    },
    {
      "bufferView": 1,
      "componentType": 5126,
      "count": 59245,
      "max": [
        0.9973813891410828,
        0.9999922513961792
      ],
      "min": [
        0.00011779547639889643,
        4.514940428634873e-06
      ],
      "type": "VEC2"
    },
    {
      "bufferView": 1,
      "byteOffset": 473960,
      "componentType": 5126,
      "count": 59245,
      "max": [
        0.9973813891410828,
        0.9999922513961792
      ],
      "min": [
        0.00011779547639889643,
        4.514940428634873e-06
      ],
      "type": "VEC2"
    },
    {
      "bufferView": 1,
      "byteOffset": 947920,
      "componentType": 5126,
      "count": 59245,
      "max": [
        0.9973813891410828,
        0.9999922513961792
      ],
      "min": [
        0.00011779547639889643,
        4.514940428634873e-06
      ],
      "type": "VEC2"
    },
    {
      "bufferView": 0,
      "componentType": 5125,
      "count": 282207,
      "type": "SCALAR"
    }
  ],
  "asset": {
    "extras": {
      "author": "ScanMe (https://sketchfab.com/ScanMe)",
      "license": "CC-BY-NC-SA-4.0 (http://creativecommons.org/licenses/by-nc-sa/4.0/)",
      "source": "https://sketchfab.com/3d-models/wind-mill-1b8f46db99b9415bb585f9d8cd9bbf7a",
      "title": "Wind mill"
    },
    "generator": "Sketchfab-15.10.0",
    "version": "2.0"
  },
  "bufferViews": [
    {
      "buffer": 0,
      "byteLength": 1128828,
      "name": "floatBufferViews",
      "target": 34963
    },
    {
      "buffer": 0,
      "byteLength": 1421880,
      "byteOffset": 1128828,
      "byteStride": 8,
      "name": "floatBufferViews",
      "target": 34962
    },
    {
      "buffer": 0,
      "byteLength": 1421880,
      "byteOffset": 2550708,
      "byteStride": 12,
      "name": "floatBufferViews",
      "target": 34962
    }
  ],
  "buffers": [
    {
      "byteLength": 3972588,
      "uri": "scene.bin"
    }
  ],
  "extensionsUsed": [
    "KHR_materials_unlit"
  ],
  "images": [
    {
      "uri": "textures/material_0_baseColor.jpeg"
    }
  ],
  "materials": [
    {
      "extensions": {
        "KHR_materials_unlit": {}
      },
      "name": "material_0",
      "pbrMetallicRoughness": {
        "baseColorTexture": {
          "index": 0
        },
        "metallicFactor": 0.0
      }
    }
  ],
  "meshes": [
    {
      "name": "Object_0",
      "primitives": [
        {
          "attributes": {
            "NORMAL": 1,
            "POSITION": 0,
            "TEXCOORD_0": 2,
            "TEXCOORD_1": 3,
            "TEXCOORD_2": 4
          },
          "indices": 5,
          "material": 0,
          "mode": 4
        }
      ]
    }
  ],
  "nodes": [
    {
      "children": [
        1
      ],
      "matrix": [
        1.0,
        0.0,
        0.0,
        0.0,
        0.0,
        2.220446049250313e-16,
        -1.0,
        0.0,
        0.0,
        1.0,
        2.220446049250313e-16,
        0.0,
        0.0,
        0.0,
        0.0,
        1.0
      ],
      "name": "Sketchfab_model"
    },
    {
      "children": [
        2
      ],
      "name": "root"
    },
    {
      "children": [
        3
      ],
      "matrix": [
        1.0,
        0.0,
        0.0,
        0.0,
        0.0,
        2.220446049250313e-16,
        1.0,
        0.0,
        0.0,
        -1.0,
        2.220446049250313e-16,
        0.0,
        0.0,
        0.0,
        0.0,
        1.0
      ],
      "name": "GLTF_SceneRootNode"
    },
    {
      "children": [
        4
      ],
      "name": "_0"
    },
    {
      "mesh": 0,
      "name": "Object_4"
    }
  ],
  "samplers": [
    {
      "magFilter": 9729,
      "minFilter": 9987,
      "wrapS": 10497,
      "wrapT": 10497
    }
  ],
  "scene": 0,
  "scenes": [
    {
      "name": "Sketchfab_Scene",
      "nodes": [
        0
      ]
    }
  ],
  "textures": [
    {
      "sampler": 0,
      "source": 0
    }
  ]
}
